<svg id="logo" width="26" height="40" viewBox="0 0 26 40" fill="none" xmlns="http://www.w3.org/2000/svg">
<g clip-path="url(#clip0_3_10)">
<path fill-rule="evenodd" clip-rule="evenodd" d="M18.3884 38.5519C16.7921 36.1037 15.8655 33.1345 15.5863 30.067C15.3593 27.8793 15.4043 25.6474 15.6153 23.4169C16.0307 23.6519 16.4897 23.806 16.943 23.8964C17.8312 24.071 18.7113 23.9822 19.5351 23.7743C20.3595 23.56 21.1199 23.1912 21.7964 22.6912C22.4656 22.1835 23.0768 21.571 23.4735 20.6995C22.5312 20.6083 21.741 20.6652 20.9845 20.7628C20.2306 20.8574 19.5324 21.0241 18.8548 21.1926C18.178 21.362 17.5286 21.5786 16.8651 21.7983C16.5046 21.9158 16.1452 22.039 15.7496 22.1713C15.8083 21.6881 15.8716 21.2049 15.943 20.7235C16.0368 20.1144 16.1437 19.5073 16.2574 18.9005C16.7411 19.241 17.3115 19.4497 17.8731 19.5614C18.7613 19.7365 19.6411 19.6472 20.4648 19.4394C21.2897 19.225 22.0501 18.8562 22.7261 18.3562C23.3953 17.8489 24.0065 17.236 24.4033 16.3649C23.461 16.2738 22.6712 16.3306 21.9142 16.4279C21.1607 16.5228 20.4625 16.6895 19.7846 16.8581C19.1081 17.027 18.4588 17.2437 17.7953 17.4637C17.3665 17.6026 16.9411 17.7509 16.4512 17.9119C16.6297 17.0412 16.827 16.1731 17.0429 15.3085C17.6705 15.7669 18.3951 16.0385 19.1432 16.1357C20.0581 16.278 21.007 16.1578 21.8784 15.8497C22.7536 15.5468 23.5502 15.0362 24.1824 14.3729C24.8032 13.7066 25.3117 12.8969 25.4235 11.9102C24.4777 12.1517 23.7387 12.4003 23.0157 12.6364L20.9871 13.3332L18.9818 14.043C18.632 14.1891 18.2676 14.2917 17.8819 14.4522C17.6591 14.5457 17.4298 14.6265 17.1902 14.7238C17.4527 13.7085 17.7396 12.6982 18.0471 11.6932C18.6469 12.2485 19.4748 12.5323 20.3031 12.5704C21.2599 12.5937 22.1874 12.3126 22.9772 11.8751C23.7719 11.4346 24.4239 10.8233 24.9302 10.1131C25.425 9.39721 25.8085 8.58904 25.8653 7.62067C24.9485 7.89261 24.224 8.21489 23.5434 8.5467C22.8639 8.87127 22.2603 9.2294 21.6701 9.5471L19.9368 10.5033C19.4275 10.755 18.8929 10.9914 18.1825 11.2603C18.4862 10.2908 18.8121 9.32704 19.1505 8.36706C19.5427 8.68439 20.0116 8.81482 20.466 8.8564C20.9967 8.8953 21.5327 8.80071 22.0112 8.5837C22.4865 8.36287 22.923 8.04974 23.2393 7.62792C23.5624 7.21601 23.7852 6.71524 23.8112 6.11873C23.4938 6.13246 23.2576 6.20302 23.0111 6.24727C22.7662 6.29074 22.5628 6.36817 22.3507 6.42004C21.9478 6.5562 21.5777 6.67519 21.2332 6.84262C20.8834 7.0009 20.545 7.17406 20.1844 7.38878C19.9059 7.55545 19.6239 7.73929 19.2913 7.97194C19.5511 7.24767 19.8223 6.52721 20.1043 5.81057C20.4587 5.89714 20.8406 5.84947 21.1787 5.75145C21.6304 5.61606 22.0356 5.37272 22.3747 5.07371C22.7231 4.77927 22.9947 4.41771 23.2156 4.03288C23.3148 3.83303 23.4079 3.63013 23.4774 3.41693C23.535 3.19495 23.593 2.97756 23.604 2.7369C23.3793 2.83911 23.2015 2.96497 23.023 3.08664C22.8433 3.2064 22.6765 3.32959 22.5216 3.45964C22.1989 3.70488 21.9127 3.96575 21.6239 4.21099C21.3401 4.46271 21.0631 4.71024 20.7712 4.95243C20.6148 5.08172 20.4591 5.21216 20.2886 5.34221C20.3633 5.15571 21.1634 3.22966 21.4866 2.51912C21.1516 3.1366 20.8311 3.76209 20.5156 4.39063C20.4831 4.10649 20.4721 3.84562 20.4599 3.58588C20.4427 3.20716 20.4397 2.83568 20.4351 2.45619C20.4221 2.07785 20.4229 1.69073 20.387 1.28683C20.379 1.08507 20.358 0.878736 20.3256 0.665155C20.2951 0.45081 20.2691 0.23494 20.1936 0C20.0226 0.170484 19.9013 0.359656 19.7754 0.551117C19.6644 0.746392 19.577 0.951583 19.4961 1.15944C19.3599 1.58165 19.2749 2.02598 19.2909 2.48136C19.2981 2.93332 19.3905 3.39671 19.5942 3.82159C19.7632 4.16523 20.0108 4.50543 20.3553 4.70528C20.21 4.99819 19.2939 6.95323 19.0196 7.57262C18.9796 7.0215 18.9338 6.60006 18.8708 6.20074C18.8044 5.78692 18.7201 5.41544 18.6179 5.04587C18.5259 4.67439 18.3794 4.31359 18.2257 3.91732C18.1299 3.72204 18.0589 3.51609 17.9353 3.29984C17.8117 3.08244 17.7144 2.85627 17.5214 2.60379C17.0803 3.00654 16.8384 3.49816 16.7289 4.01C16.608 4.52297 16.6473 5.05884 16.7823 5.56495C16.9224 6.07144 17.1933 6.54285 17.5633 6.92539C17.9292 7.29038 18.3958 7.59626 18.986 7.64928C18.5561 8.62069 18.1444 9.60126 17.7507 10.5895C17.582 10.0238 17.4645 9.58639 17.3375 9.16342C17.1921 8.62222 17.0315 8.12984 16.8232 7.62716C16.6145 7.12486 16.384 6.60845 16.0624 6.08098C15.7408 5.54893 15.365 5.00887 14.7786 4.41084C14.2608 5.08324 14.0766 5.80446 14.0151 6.51615C13.964 7.22974 14.0731 7.9441 14.3448 8.62031C14.6195 9.29271 15.0476 9.93651 15.6565 10.4213C16.183 10.8274 16.8426 11.1196 17.5431 11.1032C17.524 11.1524 17.503 11.2005 17.484 11.2497C17.1215 12.1848 16.7793 13.1288 16.4554 14.0792C16.3325 13.8786 16.2127 13.694 16.1154 13.4907C16.0204 13.3206 15.9262 13.162 15.8312 13.0128C15.7499 12.8458 15.6671 12.6902 15.5809 12.5437C15.2631 11.9331 14.9438 11.3957 14.6481 10.8057C14.3417 10.226 14.0262 9.63368 13.6561 9.00323C13.2853 8.36859 12.8828 7.71373 12.3078 6.96315C11.776 7.76331 11.6215 8.65044 11.6279 9.51926C11.6424 10.3919 11.8748 11.2607 12.2884 12.0555C12.6912 12.8534 13.3395 13.556 14.1105 14.0426C14.3085 14.1605 14.5104 14.2684 14.7133 14.3657C14.9293 14.4484 15.1521 14.5136 15.3707 14.5712C15.4829 14.5956 15.5893 14.6254 15.7022 14.6422C15.8201 14.6502 15.9338 14.662 16.0525 14.6597C16.1215 14.6609 16.1898 14.6582 16.2581 14.6574C15.9266 15.6582 15.6202 16.6689 15.3371 17.6876C14.9426 17.183 14.5672 16.778 14.2246 16.3577L12.8442 14.8005C12.3853 14.2993 11.9225 13.7932 11.4101 13.26C10.8912 12.7245 10.3502 12.1772 9.62684 11.5471C9.27736 12.4564 9.33764 13.3893 9.56579 14.249C9.79738 15.1151 10.2541 15.9137 10.8584 16.585C11.4604 17.2563 12.2159 17.807 13.0724 18.1121C13.7214 18.3669 14.4302 18.4721 15.1441 18.3963C14.9617 19.0858 14.7889 19.7784 14.6309 20.476C14.5245 20.9577 14.4264 21.4425 14.3322 21.9284C13.9655 21.4673 13.6157 21.0862 13.2948 20.6923L11.9145 19.1358C11.4551 18.6339 10.9927 18.1277 10.4803 17.5953C9.96105 17.0595 9.42043 16.5122 8.69744 15.8821C8.34758 16.7913 8.40748 17.7242 8.63601 18.5839C8.86722 19.4497 9.3239 20.2491 9.92824 20.9199C10.5307 21.5912 11.2857 22.1423 12.1422 22.4471C12.7817 22.698 13.4787 22.8052 14.1823 22.7354C13.7511 25.1775 13.5043 27.6699 13.5875 30.1982C13.5993 31.0258 13.6886 31.8546 13.771 32.6856L13.9675 33.9286C14.0285 34.3443 14.1464 34.7524 14.2349 35.1655C14.4568 36.0706 14.7424 37.5408 15.0953 38.4184C15.1124 38.4609 16.2101 38.5055 18.3884 38.5519Z" fill="#C08D5D"/>
</g>
<g clip-path="url(#clip1_3_10)">
<path fill-rule="evenodd" clip-rule="evenodd" d="M15.4437 37.0041C15.2537 35.5562 14.6394 34.1272 13.747 32.8704C13.1212 31.9651 12.3776 31.131 11.5713 30.3513C11.4898 30.5752 11.3654 30.7825 11.2225 30.9636C10.9417 31.3177 10.5781 31.569 10.1972 31.7568C9.81398 31.9423 9.40481 32.0484 8.98485 32.0774C8.56516 32.1011 8.13338 32.0662 7.69882 31.8633C8.02746 31.5234 8.34638 31.2891 8.66583 31.0812C8.98326 30.873 9.30298 30.7102 9.61549 30.5549C9.92796 30.4 10.2454 30.2721 10.5692 30.1407C10.7445 30.0686 10.9212 29.999 11.1147 29.9212C10.9351 29.7565 10.7537 29.5933 10.5699 29.4334C10.3359 29.2322 10.0977 29.0359 9.85692 28.842C9.78385 29.1282 9.63489 29.3923 9.45774 29.6167C9.17701 29.9709 8.81345 30.2219 8.43259 30.4097C8.04919 30.5954 7.64002 30.7014 7.2202 30.7303C6.80064 30.7541 6.36873 30.7191 5.9343 30.5164C6.26294 30.1765 6.58172 29.9423 6.90118 29.7341C7.2186 29.5262 7.53832 29.3634 7.85097 29.2079C8.16317 29.0531 8.48059 28.9251 8.80449 28.7939C9.01273 28.7078 9.22277 28.6264 9.46143 28.5289C9.1101 28.2557 8.75252 27.9895 8.38896 27.7307C8.29957 28.1083 8.11249 28.4462 7.85968 28.7255C7.55812 29.076 7.15824 29.3376 6.7266 29.5027C6.29525 29.671 5.82612 29.7348 5.36984 29.6874C4.91693 29.6351 4.45998 29.492 4.0963 29.153C4.5345 28.9385 4.89643 28.7937 5.24818 28.6493L6.24631 28.2572L7.23981 27.8776C7.42039 27.8198 7.59232 27.7408 7.79125 27.6769C7.90638 27.6403 8.01988 27.5968 8.14264 27.5561C7.71234 27.2551 7.27437 26.9639 6.83031 26.6814C6.78304 27.0868 6.56062 27.4628 6.2581 27.7456C5.90186 28.0644 5.45771 28.2579 5.01502 28.3474C4.56946 28.4373 4.12253 28.416 3.69885 28.31C3.27767 28.198 2.8688 28.0149 2.53196 27.6652C2.96907 27.4716 3.34946 27.3595 3.71626 27.2652C4.08027 27.1685 4.42634 27.1092 4.75418 27.0388L5.72445 26.841C6.00005 26.7717 6.28026 26.6885 6.6379 26.5607C6.20683 26.2904 5.76921 26.0295 5.32805 25.7741C5.28222 26.0218 5.14639 26.2232 4.98716 26.3862C4.79804 26.5729 4.56343 26.7106 4.31088 26.783C4.05825 26.853 3.79036 26.8753 3.53279 26.8174C3.27584 26.7654 3.02811 26.6472 2.82407 26.4288C2.94923 26.3312 3.06199 26.2815 3.17011 26.2185C3.27739 26.1557 3.37991 26.1193 3.47745 26.0703C3.67496 25.9916 3.85441 25.917 4.03991 25.869C4.22445 25.8159 4.40949 25.7721 4.61647 25.737C4.77662 25.7102 4.94367 25.6888 5.1459 25.6695C4.81134 25.4782 4.47368 25.2922 4.13319 25.111C4.02661 25.2587 3.86588 25.3643 3.70545 25.4365C3.48962 25.5313 3.25635 25.57 3.03005 25.5662C2.80176 25.5671 2.58078 25.5176 2.37152 25.4428C2.26875 25.3989 2.1673 25.352 2.0715 25.2934C1.97734 25.2276 1.88452 25.1638 1.80197 25.0758C1.92069 25.0419 2.02926 25.0322 2.13675 25.0206C2.24406 25.008 2.34756 25.0008 2.44879 25.0001C2.65134 24.9888 2.84506 24.9953 3.0347 24.995C3.22457 24.9988 3.41046 25.0032 3.60027 25.0007C3.70184 24.9992 3.80349 24.9984 3.91066 24.9926C3.82152 24.9459 2.89035 24.4727 2.53618 24.3072C2.86455 24.4335 3.19002 24.5675 3.51459 24.7043C3.43443 24.5858 3.35371 24.483 3.27381 24.3803C3.15705 24.2307 3.03729 24.0885 2.91549 23.9427C2.79727 23.7947 2.67096 23.6477 2.55312 23.4825C2.49049 23.4032 2.4313 23.318 2.3741 23.2263C2.31594 23.1349 2.25553 23.0444 2.20777 22.9306C2.32826 22.9401 2.43597 22.9727 2.54616 23.0047C2.65194 23.043 2.75196 23.0927 2.85038 23.1456C3.0396 23.262 3.21659 23.4034 3.35873 23.5817C3.5031 23.7559 3.61884 23.962 3.67968 24.1895C3.72728 24.3749 3.74388 24.5845 3.67794 24.772C3.82856 24.8363 4.81327 25.283 5.11919 25.4296C4.95502 25.2071 4.83524 25.0321 4.72919 24.8598C4.61972 24.681 4.53086 24.5124 4.44943 24.3388C4.36347 24.1678 4.30172 23.9831 4.23119 23.7827C4.20403 23.6774 4.16397 23.5761 4.14058 23.4539C4.11681 23.3312 4.08018 23.2137 4.07139 23.0551C4.37019 23.0654 4.62219 23.174 4.83044 23.3331C5.04341 23.489 5.20291 23.7055 5.3163 23.9417C5.42794 24.1796 5.4784 24.4466 5.46221 24.7119C5.44191 24.9692 5.36407 25.2366 5.15691 25.4479C5.63662 25.678 6.11234 25.9175 6.58372 26.1657C6.46372 25.896 6.366 25.6916 6.27662 25.4897C6.15572 25.2368 6.05651 24.9976 5.97208 24.739C5.88792 24.4804 5.80743 24.2094 5.75802 23.9047C5.70711 23.5982 5.6742 23.2712 5.70249 22.8539C6.11822 22.9418 6.42306 23.1564 6.67809 23.4071C6.92982 23.6618 7.12087 23.9688 7.2377 24.3139C7.35214 24.6585 7.39895 25.0419 7.32523 25.4235C7.25726 25.7484 7.10155 26.0732 6.82987 26.2938C6.85314 26.3063 6.87676 26.3178 6.90003 26.3303C7.34227 26.5685 7.77967 26.8166 8.21222 27.0731C8.19362 26.957 8.17908 26.848 8.1499 26.7392C8.13065 26.6438 8.11483 26.5529 8.10241 26.4654C8.07893 26.3756 8.05975 26.2896 8.04486 26.206C7.96693 25.8709 7.91342 25.5631 7.83378 25.243C7.76155 24.9234 7.68871 24.596 7.62419 24.2364C7.55861 23.875 7.49848 23.4956 7.47275 23.024C7.93545 23.156 8.28298 23.4433 8.56333 23.7757C8.84188 24.1122 9.03636 24.5178 9.13784 24.954C9.24438 25.3878 9.22661 25.8649 9.09186 26.2997C9.05493 26.4086 9.01333 26.515 8.96782 26.6177C8.91265 26.7191 8.84916 26.8161 8.78479 26.9088C8.75009 26.9544 8.7193 27.0002 8.68182 27.0432C8.6396 27.0844 8.60022 27.1257 8.55436 27.1633C8.52848 27.1861 8.50164 27.2072 8.47543 27.229C8.92727 27.5021 9.37276 27.7872 9.81201 28.0828C9.79775 27.7632 9.80864 27.4876 9.80209 27.2168L9.82002 26.1777C9.83139 25.8385 9.8426 25.4961 9.86386 25.1275C9.88683 24.7558 9.91437 24.3725 9.98431 23.8986C10.4132 24.1311 10.6939 24.5054 10.887 24.9061C11.0809 25.3105 11.1673 25.762 11.156 26.213C11.1456 26.6632 11.0376 27.1173 10.8113 27.5107C10.6475 27.8178 10.4122 28.0874 10.1161 28.2898C10.4099 28.4929 10.7011 28.7002 10.9882 28.9143C11.1855 29.063 11.3806 29.2155 11.5746 29.3698C11.5639 29.0757 11.5729 28.8175 11.5666 28.5638L11.5848 27.5249C11.5961 27.1853 11.6071 26.8431 11.6286 26.4747C11.6516 26.1028 11.679 25.7196 11.7488 25.2458C12.1778 25.4782 12.4587 25.8523 12.6517 26.2532C12.8456 26.6573 12.9322 27.1092 12.9208 27.56C12.9102 28.0103 12.8025 28.4644 12.5761 28.8577C12.4146 29.1602 12.1845 29.4267 11.8943 29.6281C12.8532 30.417 13.7584 31.2847 14.5497 32.2729C14.8147 32.5914 15.0505 32.9354 15.2897 33.2781L15.6196 33.8144C15.7317 33.9922 15.8197 34.1856 15.9205 34.3713C16.1308 34.7873 16.5008 35.4388 16.6523 35.8868C16.6596 35.9085 16.2568 36.281 15.4437 37.0041Z" fill="#C08D5D"/>
</g>
<defs>
<clipPath id="clip0_3_10">
<rect width="17.5502" height="38.9024" fill="white" transform="translate(8.44983)"/>
</clipPath>
<clipPath id="clip1_3_10">
<rect width="8.76579" height="19.4719" fill="white" transform="matrix(-0.761246 0.648464 0.650354 0.759631 6.67297 19.127)"/>
</clipPath>
</defs>
</svg>
